G75*
%MOIN*%
%OFA0B0*%
%FSLAX25Y25*%
%IPPOS*%
%LPD*%
%AMOC8*
5,1,8,0,0,1.08239X$1,22.5*
%
%ADD10C,0.06800*%
%ADD11C,0.08200*%
%ADD12OC8,0.08200*%
%ADD13C,0.13398*%
%ADD14C,0.08200*%
%ADD15C,0.07300*%
%ADD16OC8,0.06000*%
%ADD17C,0.06000*%
%ADD18C,0.06400*%
%ADD19C,0.07850*%
D10*
X0057000Y0057800D02*
X0063000Y0057800D01*
X0072000Y0057800D02*
X0078000Y0057800D01*
X0078000Y0067800D02*
X0072000Y0067800D01*
X0063000Y0067800D02*
X0057000Y0067800D01*
X0057000Y0077800D02*
X0063000Y0077800D01*
X0072000Y0077800D02*
X0078000Y0077800D01*
X0078000Y0087800D02*
X0072000Y0087800D01*
X0063000Y0087800D02*
X0057000Y0087800D01*
X0107000Y0047800D02*
X0113000Y0047800D01*
X0113000Y0037800D02*
X0107000Y0037800D01*
X0107000Y0027800D02*
X0113000Y0027800D01*
X0113000Y0017800D02*
X0107000Y0017800D01*
X0107000Y0007800D02*
X0113000Y0007800D01*
X0127000Y0007800D02*
X0133000Y0007800D01*
X0133000Y0017800D02*
X0127000Y0017800D01*
X0127000Y0027800D02*
X0133000Y0027800D01*
X0133000Y0037800D02*
X0127000Y0037800D01*
X0127000Y0047800D02*
X0133000Y0047800D01*
X0189830Y0047928D02*
X0189830Y0053928D01*
X0199830Y0053928D02*
X0199830Y0047928D01*
X0209830Y0047928D02*
X0209830Y0053928D01*
X0219830Y0053928D02*
X0219830Y0047928D01*
X0229830Y0047928D02*
X0229830Y0053928D01*
X0255414Y0046916D02*
X0255414Y0040916D01*
X0265414Y0040916D02*
X0265414Y0046916D01*
X0275414Y0046916D02*
X0275414Y0040916D01*
X0285414Y0040916D02*
X0285414Y0046916D01*
X0335000Y0046859D02*
X0335000Y0040859D01*
X0345000Y0040859D02*
X0345000Y0046859D01*
X0355000Y0046859D02*
X0355000Y0040859D01*
X0365000Y0040859D02*
X0365000Y0046859D01*
X0368000Y0092800D02*
X0362000Y0092800D01*
X0362000Y0102800D02*
X0368000Y0102800D01*
X0377000Y0102800D02*
X0383000Y0102800D01*
X0383000Y0112800D02*
X0377000Y0112800D01*
X0368000Y0112800D02*
X0362000Y0112800D01*
X0362000Y0122800D02*
X0368000Y0122800D01*
X0377000Y0122800D02*
X0383000Y0122800D01*
X0383000Y0132800D02*
X0377000Y0132800D01*
X0368000Y0132800D02*
X0362000Y0132800D01*
X0362000Y0142800D02*
X0368000Y0142800D01*
X0377000Y0142800D02*
X0383000Y0142800D01*
X0383000Y0152800D02*
X0377000Y0152800D01*
X0368000Y0152800D02*
X0362000Y0152800D01*
X0362000Y0162800D02*
X0368000Y0162800D01*
X0377000Y0162800D02*
X0383000Y0162800D01*
X0383000Y0172800D02*
X0377000Y0172800D01*
X0368000Y0172800D02*
X0362000Y0172800D01*
X0362000Y0182800D02*
X0368000Y0182800D01*
X0377000Y0182800D02*
X0383000Y0182800D01*
X0383000Y0192800D02*
X0377000Y0192800D01*
X0368000Y0192800D02*
X0362000Y0192800D01*
X0362000Y0202800D02*
X0368000Y0202800D01*
X0377000Y0202800D02*
X0383000Y0202800D01*
X0383000Y0212800D02*
X0377000Y0212800D01*
X0368000Y0212800D02*
X0362000Y0212800D01*
X0362000Y0222800D02*
X0368000Y0222800D01*
X0377000Y0222800D02*
X0383000Y0222800D01*
X0383000Y0232800D02*
X0377000Y0232800D01*
X0368000Y0232800D02*
X0362000Y0232800D01*
X0362000Y0242800D02*
X0368000Y0242800D01*
X0377000Y0242800D02*
X0383000Y0242800D01*
X0330000Y0274800D02*
X0330000Y0280800D01*
X0320000Y0280800D02*
X0320000Y0274800D01*
X0310000Y0274800D02*
X0310000Y0280800D01*
X0300000Y0280800D02*
X0300000Y0274800D01*
X0290000Y0274800D02*
X0290000Y0280800D01*
X0250000Y0275800D02*
X0250000Y0269800D01*
X0240000Y0269800D02*
X0240000Y0275800D01*
X0230000Y0275800D02*
X0230000Y0269800D01*
X0220000Y0269800D02*
X0220000Y0275800D01*
X0220000Y0289800D02*
X0220000Y0295800D01*
X0230000Y0295800D02*
X0230000Y0289800D01*
X0240000Y0289800D02*
X0240000Y0295800D01*
X0250000Y0295800D02*
X0250000Y0289800D01*
X0185000Y0289800D02*
X0185000Y0295800D01*
X0175000Y0295800D02*
X0175000Y0289800D01*
X0165000Y0289800D02*
X0165000Y0295800D01*
X0155000Y0295800D02*
X0155000Y0289800D01*
X0155000Y0275800D02*
X0155000Y0269800D01*
X0165000Y0269800D02*
X0165000Y0275800D01*
X0175000Y0275800D02*
X0175000Y0269800D01*
X0185000Y0269800D02*
X0185000Y0275800D01*
X0180000Y0230800D02*
X0180000Y0224800D01*
X0190000Y0224800D02*
X0190000Y0230800D01*
X0200000Y0230800D02*
X0200000Y0224800D01*
X0210000Y0224800D02*
X0210000Y0230800D01*
X0220000Y0230800D02*
X0220000Y0224800D01*
X0230000Y0224800D02*
X0230000Y0230800D01*
X0240000Y0230800D02*
X0240000Y0224800D01*
X0250000Y0224800D02*
X0250000Y0230800D01*
X0260000Y0230800D02*
X0260000Y0224800D01*
X0270000Y0224800D02*
X0270000Y0230800D01*
X0270000Y0215800D02*
X0270000Y0209800D01*
X0260000Y0209800D02*
X0260000Y0215800D01*
X0250000Y0215800D02*
X0250000Y0209800D01*
X0240000Y0209800D02*
X0240000Y0215800D01*
X0230000Y0215800D02*
X0230000Y0209800D01*
X0220000Y0209800D02*
X0220000Y0215800D01*
X0210000Y0215800D02*
X0210000Y0209800D01*
X0200000Y0209800D02*
X0200000Y0215800D01*
X0190000Y0215800D02*
X0190000Y0209800D01*
X0180000Y0209800D02*
X0180000Y0215800D01*
X0170000Y0215800D02*
X0170000Y0209800D01*
X0160000Y0209800D02*
X0160000Y0215800D01*
X0150000Y0215800D02*
X0150000Y0209800D01*
X0140000Y0209800D02*
X0140000Y0215800D01*
X0130000Y0215800D02*
X0130000Y0209800D01*
X0130000Y0200800D02*
X0130000Y0194800D01*
X0140000Y0194800D02*
X0140000Y0200800D01*
X0150000Y0200800D02*
X0150000Y0194800D01*
X0160000Y0194800D02*
X0160000Y0200800D01*
X0170000Y0200800D02*
X0170000Y0194800D01*
X0170000Y0185800D02*
X0170000Y0179800D01*
X0160000Y0179800D02*
X0160000Y0185800D01*
X0150000Y0185800D02*
X0150000Y0179800D01*
X0140000Y0179800D02*
X0140000Y0185800D01*
X0130000Y0185800D02*
X0130000Y0179800D01*
X0130000Y0170800D02*
X0130000Y0164800D01*
X0140000Y0164800D02*
X0140000Y0170800D01*
X0150000Y0170800D02*
X0150000Y0164800D01*
X0160000Y0164800D02*
X0160000Y0170800D01*
X0170000Y0170800D02*
X0170000Y0164800D01*
X0170000Y0155800D02*
X0170000Y0149800D01*
X0160000Y0149800D02*
X0160000Y0155800D01*
X0150000Y0155800D02*
X0150000Y0149800D01*
X0140000Y0149800D02*
X0140000Y0155800D01*
X0130000Y0155800D02*
X0130000Y0149800D01*
X0130000Y0140800D02*
X0130000Y0134800D01*
X0140000Y0134800D02*
X0140000Y0140800D01*
X0150000Y0140800D02*
X0150000Y0134800D01*
X0160000Y0134800D02*
X0160000Y0140800D01*
X0170000Y0140800D02*
X0170000Y0134800D01*
X0180000Y0134800D02*
X0180000Y0140800D01*
X0190000Y0140800D02*
X0190000Y0134800D01*
X0200000Y0134800D02*
X0200000Y0140800D01*
X0210000Y0140800D02*
X0210000Y0134800D01*
X0220000Y0134800D02*
X0220000Y0140800D01*
X0230000Y0140800D02*
X0230000Y0134800D01*
X0240000Y0134800D02*
X0240000Y0140800D01*
X0250000Y0140800D02*
X0250000Y0134800D01*
X0260000Y0134800D02*
X0260000Y0140800D01*
X0270000Y0140800D02*
X0270000Y0134800D01*
X0270000Y0149800D02*
X0270000Y0155800D01*
X0260000Y0155800D02*
X0260000Y0149800D01*
X0250000Y0149800D02*
X0250000Y0155800D01*
X0240000Y0155800D02*
X0240000Y0149800D01*
X0230000Y0149800D02*
X0230000Y0155800D01*
X0220000Y0155800D02*
X0220000Y0149800D01*
X0210000Y0149800D02*
X0210000Y0155800D01*
X0200000Y0155800D02*
X0200000Y0149800D01*
X0190000Y0149800D02*
X0190000Y0155800D01*
X0180000Y0155800D02*
X0180000Y0149800D01*
X0180000Y0164800D02*
X0180000Y0170800D01*
X0190000Y0170800D02*
X0190000Y0164800D01*
X0200000Y0164800D02*
X0200000Y0170800D01*
X0210000Y0170800D02*
X0210000Y0164800D01*
X0220000Y0164800D02*
X0220000Y0170800D01*
X0230000Y0170800D02*
X0230000Y0164800D01*
X0240000Y0164800D02*
X0240000Y0170800D01*
X0250000Y0170800D02*
X0250000Y0164800D01*
X0260000Y0164800D02*
X0260000Y0170800D01*
X0270000Y0170800D02*
X0270000Y0164800D01*
X0270000Y0179800D02*
X0270000Y0185800D01*
X0260000Y0185800D02*
X0260000Y0179800D01*
X0250000Y0179800D02*
X0250000Y0185800D01*
X0240000Y0185800D02*
X0240000Y0179800D01*
X0240000Y0194800D02*
X0240000Y0200800D01*
X0250000Y0200800D02*
X0250000Y0194800D01*
X0260000Y0194800D02*
X0260000Y0200800D01*
X0270000Y0200800D02*
X0270000Y0194800D01*
X0297000Y0192800D02*
X0303000Y0192800D01*
X0303000Y0182800D02*
X0297000Y0182800D01*
X0297000Y0172800D02*
X0303000Y0172800D01*
X0303000Y0162800D02*
X0297000Y0162800D01*
X0297000Y0152800D02*
X0303000Y0152800D01*
X0303000Y0142800D02*
X0297000Y0142800D01*
X0377000Y0092800D02*
X0383000Y0092800D01*
X0410000Y0149800D02*
X0410000Y0155800D01*
X0420000Y0155800D02*
X0420000Y0149800D01*
X0190000Y0179800D02*
X0190000Y0185800D01*
X0180000Y0185800D02*
X0180000Y0179800D01*
X0180000Y0194800D02*
X0180000Y0200800D01*
X0190000Y0200800D02*
X0190000Y0194800D01*
X0170000Y0224800D02*
X0170000Y0230800D01*
X0160000Y0230800D02*
X0160000Y0224800D01*
X0150000Y0224800D02*
X0150000Y0230800D01*
X0140000Y0230800D02*
X0140000Y0224800D01*
X0130000Y0224800D02*
X0130000Y0230800D01*
X0120000Y0230800D02*
X0120000Y0224800D01*
X0110000Y0224800D02*
X0110000Y0230800D01*
X0100000Y0230800D02*
X0100000Y0224800D01*
X0090000Y0224800D02*
X0090000Y0230800D01*
X0080000Y0230800D02*
X0080000Y0224800D01*
X0080000Y0215800D02*
X0080000Y0209800D01*
X0080000Y0200800D02*
X0080000Y0194800D01*
X0080000Y0185800D02*
X0080000Y0179800D01*
X0080000Y0170800D02*
X0080000Y0164800D01*
X0080000Y0155800D02*
X0080000Y0149800D01*
X0080000Y0140800D02*
X0080000Y0134800D01*
X0090000Y0134800D02*
X0090000Y0140800D01*
X0100000Y0140800D02*
X0100000Y0134800D01*
X0110000Y0134800D02*
X0110000Y0140800D01*
X0120000Y0140800D02*
X0120000Y0134800D01*
X0120000Y0149800D02*
X0120000Y0155800D01*
X0110000Y0155800D02*
X0110000Y0149800D01*
X0100000Y0149800D02*
X0100000Y0155800D01*
X0090000Y0155800D02*
X0090000Y0149800D01*
X0090000Y0164800D02*
X0090000Y0170800D01*
X0100000Y0170800D02*
X0100000Y0164800D01*
X0110000Y0164800D02*
X0110000Y0170800D01*
X0120000Y0170800D02*
X0120000Y0164800D01*
X0120000Y0179800D02*
X0120000Y0185800D01*
X0110000Y0185800D02*
X0110000Y0179800D01*
X0100000Y0179800D02*
X0100000Y0185800D01*
X0090000Y0185800D02*
X0090000Y0179800D01*
X0090000Y0194800D02*
X0090000Y0200800D01*
X0100000Y0200800D02*
X0100000Y0194800D01*
X0110000Y0194800D02*
X0110000Y0200800D01*
X0120000Y0200800D02*
X0120000Y0194800D01*
X0120000Y0209800D02*
X0120000Y0215800D01*
X0110000Y0215800D02*
X0110000Y0209800D01*
X0100000Y0209800D02*
X0100000Y0215800D01*
X0090000Y0215800D02*
X0090000Y0209800D01*
X0090000Y0264800D02*
X0090000Y0270800D01*
X0100000Y0270800D02*
X0100000Y0264800D01*
X0080000Y0264800D02*
X0080000Y0270800D01*
X0070000Y0270800D02*
X0070000Y0264800D01*
D11*
X0060000Y0007800D03*
X0071100Y0015000D03*
X0088900Y0015000D03*
X0088900Y0040600D03*
X0071100Y0040600D03*
X0060000Y0047800D03*
X0090000Y0062800D03*
X0100000Y0062800D03*
X0110000Y0062800D03*
X0120000Y0062800D03*
X0130000Y0062800D03*
X0140000Y0062800D03*
X0160000Y0062800D03*
X0170000Y0062800D03*
X0180000Y0062800D03*
X0190000Y0062800D03*
X0200000Y0062800D03*
X0210000Y0062800D03*
X0220000Y0062800D03*
X0230000Y0062800D03*
X0250000Y0062800D03*
X0260000Y0062800D03*
X0270000Y0062800D03*
X0280000Y0062800D03*
X0290000Y0062800D03*
X0300000Y0062800D03*
X0310000Y0062800D03*
X0320000Y0062800D03*
X0330000Y0082800D03*
X0340000Y0082800D03*
X0390000Y0077800D03*
X0390000Y0087800D03*
X0390000Y0067800D03*
X0390000Y0057800D03*
X0390000Y0047800D03*
X0401100Y0035600D03*
X0418900Y0035600D03*
X0430000Y0047800D03*
X0430000Y0057800D03*
X0430000Y0067800D03*
X0430000Y0077800D03*
X0430000Y0087800D03*
X0418900Y0010000D03*
X0401100Y0010000D03*
X0225000Y0007800D03*
X0225000Y0017290D03*
X0225000Y0026779D03*
X0225000Y0036164D03*
X0185000Y0036164D03*
X0185000Y0026779D03*
X0185000Y0017290D03*
X0185000Y0007800D03*
X0175000Y0007800D03*
X0165000Y0007800D03*
X0155000Y0007800D03*
X0145000Y0007800D03*
X0145000Y0047800D03*
X0155000Y0047800D03*
X0165000Y0047800D03*
X0175000Y0047800D03*
X0170000Y0252800D03*
X0160000Y0252800D03*
X0150000Y0252800D03*
X0140000Y0252800D03*
X0124000Y0252800D03*
X0114000Y0252800D03*
X0104000Y0252800D03*
X0094000Y0252800D03*
X0084000Y0252800D03*
X0074000Y0252800D03*
X0064000Y0252800D03*
X0054000Y0252800D03*
X0180000Y0252800D03*
X0190000Y0252800D03*
X0200000Y0252800D03*
X0210000Y0252800D03*
X0230000Y0252800D03*
X0240000Y0252800D03*
X0250000Y0252800D03*
X0260000Y0252800D03*
X0270000Y0252800D03*
X0280000Y0252800D03*
X0290000Y0252800D03*
X0300000Y0252800D03*
X0330000Y0252800D03*
X0340000Y0252800D03*
X0350000Y0287800D03*
X0350000Y0297800D03*
X0390000Y0297800D03*
X0390000Y0287800D03*
X0406100Y0295600D03*
X0423900Y0295600D03*
X0423900Y0270000D03*
X0430000Y0257800D03*
X0406100Y0270000D03*
X0390000Y0257800D03*
D12*
X0340000Y0242800D03*
X0330000Y0242800D03*
X0330000Y0232800D03*
X0340000Y0232800D03*
X0340000Y0222800D03*
X0330000Y0222800D03*
X0330000Y0212800D03*
X0340000Y0212800D03*
X0340000Y0202800D03*
X0330000Y0202800D03*
X0330000Y0192800D03*
X0340000Y0192800D03*
X0340000Y0182800D03*
X0330000Y0182800D03*
X0330000Y0172800D03*
X0340000Y0172800D03*
X0340000Y0162800D03*
X0330000Y0162800D03*
X0330000Y0152800D03*
X0340000Y0152800D03*
X0340000Y0142800D03*
X0330000Y0142800D03*
X0330000Y0132800D03*
X0340000Y0132800D03*
X0340000Y0122800D03*
X0330000Y0122800D03*
X0330000Y0112800D03*
X0340000Y0112800D03*
X0340000Y0102800D03*
X0330000Y0102800D03*
X0330000Y0092800D03*
X0340000Y0092800D03*
D13*
X0340000Y0062800D03*
X0220000Y0082800D03*
X0220000Y0192800D03*
X0315000Y0252800D03*
X0020000Y0252800D03*
X0015000Y0062800D03*
D14*
X0401300Y0122800D02*
X0408700Y0122800D01*
X0408700Y0132800D02*
X0401300Y0132800D01*
X0421300Y0132800D02*
X0428700Y0132800D01*
X0428700Y0122800D02*
X0421300Y0122800D01*
X0421300Y0172800D02*
X0428700Y0172800D01*
X0428700Y0182800D02*
X0421300Y0182800D01*
X0408700Y0182800D02*
X0401300Y0182800D01*
X0401300Y0172800D02*
X0408700Y0172800D01*
X0408700Y0192800D02*
X0401300Y0192800D01*
X0401300Y0202800D02*
X0408700Y0202800D01*
X0421300Y0202800D02*
X0428700Y0202800D01*
X0428700Y0192800D02*
X0421300Y0192800D01*
X0421300Y0227800D02*
X0428700Y0227800D01*
X0428700Y0237800D02*
X0421300Y0237800D01*
X0408700Y0237800D02*
X0401300Y0237800D01*
X0401300Y0227800D02*
X0408700Y0227800D01*
D15*
X0410000Y0212800D03*
X0420000Y0212800D03*
D16*
X0375000Y0267800D03*
X0370000Y0275300D03*
X0365000Y0267800D03*
D17*
X0285000Y0110400D02*
X0285000Y0105200D01*
X0275000Y0105200D02*
X0275000Y0110400D01*
X0250000Y0110400D02*
X0250000Y0105200D01*
X0240000Y0105200D02*
X0240000Y0110400D01*
X0215000Y0110400D02*
X0215000Y0105200D01*
X0205000Y0105200D02*
X0205000Y0110400D01*
X0180000Y0110400D02*
X0180000Y0105200D01*
X0170000Y0105200D02*
X0170000Y0110400D01*
X0145000Y0110400D02*
X0145000Y0105200D01*
X0135000Y0105200D02*
X0135000Y0110400D01*
X0110000Y0110400D02*
X0110000Y0105200D01*
X0100000Y0105200D02*
X0100000Y0110400D01*
X0075000Y0110400D02*
X0075000Y0105200D01*
X0065000Y0105200D02*
X0065000Y0110400D01*
D18*
X0147200Y0082800D02*
X0152800Y0082800D01*
X0152800Y0072800D02*
X0147200Y0072800D01*
D19*
X0240472Y0021325D02*
X0240472Y0014275D01*
X0260157Y0014275D02*
X0260157Y0021325D01*
X0279843Y0021325D02*
X0279843Y0014275D01*
X0299528Y0014275D02*
X0299528Y0021325D01*
X0320472Y0021325D02*
X0320472Y0014275D01*
X0340157Y0014275D02*
X0340157Y0021325D01*
X0359843Y0021325D02*
X0359843Y0014275D01*
X0379528Y0014275D02*
X0379528Y0021325D01*
X0114528Y0289275D02*
X0114528Y0296325D01*
X0094843Y0296325D02*
X0094843Y0289275D01*
X0075157Y0289275D02*
X0075157Y0296325D01*
X0055472Y0296325D02*
X0055472Y0289275D01*
M02*
