%
M48
M72
T01C0.02756
T02C0.03200
T03C0.03543
T04C0.03600
T05C0.04000
T06C0.04400
T07C0.04700
T08C0.12598
%
T01
X410000Y212800
X420000Y212800
T02
X375000Y267800
X370000Y275300
X365000Y267800
X285000Y107800
X275000Y107800
X250000Y107800
X240000Y107800
X215000Y107800
X205000Y107800
X180000Y107800
X170000Y107800
X145000Y107800
X135000Y107800
X110000Y107800
X100000Y107800
X75000Y107800
X65000Y107800
T03
X60000Y7800
X60000Y47800
X145000Y47800
X155000Y47800
X165000Y47800
X175000Y47800
X185000Y36164
X185000Y26779
X185000Y17290
X185000Y7800
X175000Y7800
X165000Y7800
X155000Y7800
X145000Y7800
X225000Y7800
X225000Y17290
X225000Y26779
X225000Y36164
X390000Y47800
X390000Y57800
X390000Y67800
X390000Y77800
X390000Y87800
X430000Y87800
X430000Y77800
X430000Y67800
X430000Y57800
X430000Y47800
X430000Y257800
X390000Y257800
X390000Y287800
X390000Y297800
X350000Y297800
X350000Y287800
T04
X150000Y82800
X150000Y72800
T05
X140000Y62800
X130000Y62800
X120000Y62800
X110000Y62800
X100000Y62800
X90000Y62800
X75000Y57800
X75000Y67800
X60000Y67800
X60000Y57800
X71100Y40600
X88900Y40600
X110000Y37800
X110000Y47800
X130000Y47800
X130000Y37800
X130000Y27800
X130000Y17800
X130000Y7800
X110000Y7800
X110000Y17800
X110000Y27800
X88900Y15000
X71100Y15000
X160000Y62800
X170000Y62800
X180000Y62800
X190000Y62800
X200000Y62800
X210000Y62800
X220000Y62800
X230000Y62800
X229830Y50928
X219830Y50928
X209830Y50928
X199830Y50928
X189830Y50928
X250000Y62800
X260000Y62800
X270000Y62800
X280000Y62800
X290000Y62800
X300000Y62800
X310000Y62800
X320000Y62800
X330000Y82800
X340000Y82800
X340000Y92800
X330000Y92800
X330000Y102800
X340000Y102800
X340000Y112800
X330000Y112800
X330000Y122800
X340000Y122800
X340000Y132800
X330000Y132800
X330000Y142800
X340000Y142800
X340000Y152800
X330000Y152800
X330000Y162800
X340000Y162800
X340000Y172800
X330000Y172800
X330000Y182800
X340000Y182800
X340000Y192800
X330000Y192800
X330000Y202800
X340000Y202800
X340000Y212800
X330000Y212800
X330000Y222800
X340000Y222800
X340000Y232800
X330000Y232800
X330000Y242800
X340000Y242800
X340000Y252800
X330000Y252800
X300000Y252800
X290000Y252800
X280000Y252800
X270000Y252800
X260000Y252800
X250000Y252800
X240000Y252800
X230000Y252800
X210000Y252800
X200000Y252800
X190000Y252800
X180000Y252800
X170000Y252800
X160000Y252800
X150000Y252800
X140000Y252800
X124000Y252800
X114000Y252800
X104000Y252800
X94000Y252800
X84000Y252800
X74000Y252800
X64000Y252800
X54000Y252800
X70000Y267800
X80000Y267800
X90000Y267800
X100000Y267800
X155000Y272800
X165000Y272800
X175000Y272800
X185000Y272800
X185000Y292800
X175000Y292800
X165000Y292800
X155000Y292800
X220000Y292800
X230000Y292800
X240000Y292800
X250000Y292800
X250000Y272800
X240000Y272800
X230000Y272800
X220000Y272800
X220000Y227800
X230000Y227800
X240000Y227800
X250000Y227800
X260000Y227800
X270000Y227800
X270000Y212800
X260000Y212800
X250000Y212800
X240000Y212800
X230000Y212800
X220000Y212800
X210000Y212800
X200000Y212800
X190000Y212800
X180000Y212800
X170000Y212800
X160000Y212800
X150000Y212800
X140000Y212800
X130000Y212800
X120000Y212800
X110000Y212800
X100000Y212800
X90000Y212800
X80000Y212800
X80000Y197800
X90000Y197800
X100000Y197800
X110000Y197800
X120000Y197800
X130000Y197800
X140000Y197800
X150000Y197800
X160000Y197800
X170000Y197800
X180000Y197800
X190000Y197800
X190000Y182800
X180000Y182800
X170000Y182800
X160000Y182800
X150000Y182800
X140000Y182800
X130000Y182800
X120000Y182800
X110000Y182800
X100000Y182800
X90000Y182800
X80000Y182800
X80000Y167800
X90000Y167800
X100000Y167800
X110000Y167800
X120000Y167800
X130000Y167800
X140000Y167800
X150000Y167800
X160000Y167800
X170000Y167800
X180000Y167800
X190000Y167800
X200000Y167800
X210000Y167800
X220000Y167800
X230000Y167800
X240000Y167800
X250000Y167800
X260000Y167800
X270000Y167800
X270000Y182800
X260000Y182800
X250000Y182800
X240000Y182800
X240000Y197800
X250000Y197800
X260000Y197800
X270000Y197800
X300000Y192800
X300000Y182800
X300000Y172800
X300000Y162800
X300000Y152800
X300000Y142800
X270000Y137800
X260000Y137800
X250000Y137800
X240000Y137800
X230000Y137800
X220000Y137800
X210000Y137800
X200000Y137800
X190000Y137800
X180000Y137800
X170000Y137800
X160000Y137800
X150000Y137800
X140000Y137800
X130000Y137800
X120000Y137800
X110000Y137800
X100000Y137800
X90000Y137800
X80000Y137800
X80000Y152800
X90000Y152800
X100000Y152800
X110000Y152800
X120000Y152800
X130000Y152800
X140000Y152800
X150000Y152800
X160000Y152800
X170000Y152800
X180000Y152800
X190000Y152800
X200000Y152800
X210000Y152800
X220000Y152800
X230000Y152800
X240000Y152800
X250000Y152800
X260000Y152800
X270000Y152800
X365000Y152800
X365000Y162800
X365000Y172800
X365000Y182800
X380000Y182800
X380000Y172800
X380000Y162800
X380000Y152800
X380000Y142800
X380000Y132800
X380000Y122800
X380000Y112800
X380000Y102800
X365000Y102800
X365000Y112800
X365000Y122800
X365000Y132800
X365000Y142800
X410000Y152800
X420000Y152800
X380000Y192800
X380000Y202800
X380000Y212800
X380000Y222800
X380000Y232800
X365000Y232800
X365000Y222800
X365000Y212800
X365000Y202800
X365000Y192800
X365000Y242800
X380000Y242800
X406100Y270000
X423900Y270000
X423900Y295600
X406100Y295600
X330000Y277800
X320000Y277800
X310000Y277800
X300000Y277800
X290000Y277800
X210000Y227800
X200000Y227800
X190000Y227800
X180000Y227800
X170000Y227800
X160000Y227800
X150000Y227800
X140000Y227800
X130000Y227800
X120000Y227800
X110000Y227800
X100000Y227800
X90000Y227800
X80000Y227800
X75000Y87800
X75000Y77800
X60000Y77800
X60000Y87800
X255414Y43916
X265414Y43916
X275414Y43916
X285414Y43916
X335000Y43859
X345000Y43859
X355000Y43859
X365000Y43859
X401100Y35600
X418900Y35600
X418900Y10000
X401100Y10000
X380000Y92800
X365000Y92800
T06
X405000Y122800
X405000Y132800
X425000Y132800
X425000Y122800
X425000Y172800
X425000Y182800
X425000Y192800
X425000Y202800
X405000Y202800
X405000Y192800
X405000Y182800
X405000Y172800
X405000Y227800
X405000Y237800
X425000Y237800
X425000Y227800
T07
X379528Y17800
X359843Y17800
X340157Y17800
X320472Y17800
X299528Y17800
X279843Y17800
X260157Y17800
X240472Y17800
X114528Y292800
X94843Y292800
X75157Y292800
X55472Y292800
T08
X20000Y252800
X220000Y192800
X315000Y252800
X220000Y82800
X340000Y62800
X15000Y62800
M30
